<?xml version="1.0" encoding="utf-8"?>
<!-- Generator: Adobe Illustrator 22.1.0, SVG Export Plug-In . SVG Version: 6.00 Build 0)  -->
<svg version="1.1" id="Layer_1" xmlns="http://www.w3.org/2000/svg" xmlns:xlink="http://www.w3.org/1999/xlink" x="0px" y="0px"
	 viewBox="0 0 1100 1500" style="enable-background:new 0 0 1100 1500;" xml:space="preserve">
<style type="text/css">
	.st0{fill:#494949;}
</style>
<rect x="159.8" y="153.8" width="133.6" height="1193.2"/>
<path d="M858.4,750.4h-51.6V153.8h86.7c25.9,0,46.9,21,46.9,46.9v467.7C940.5,713.6,903.8,750.4,858.4,750.4z"/>
<path d="M893.6,1346.4h-86.7V749.8h51.6c45.3,0,82.1,36.7,82.1,82.1v467.7C940.5,1325.4,919.5,1346.4,893.6,1346.4z"/>
<rect x="475.8" y="434.5" transform="matrix(6.123234e-17 -1 1 6.123234e-17 -207.7922 1292.9586)" width="133.6" height="631.8"/>
<rect x="482.6" y="-35.3" transform="matrix(6.123234e-17 -1 1 6.123234e-17 328.2645 771.7355)" class="st0" width="134.8" height="514"/>
<rect x="482.6" y="1021.7" transform="matrix(6.123234e-17 -1 1 6.123234e-17 -728.7355 1828.7355)" class="st0" width="134.8" height="514"/>
</svg>
