<?xml version="1.0" encoding="utf-8"?>
<!-- Generator: Adobe Illustrator 22.1.0, SVG Export Plug-In . SVG Version: 6.00 Build 0)  -->
<svg version="1.1" id="Layer_1" xmlns="http://www.w3.org/2000/svg" xmlns:xlink="http://www.w3.org/1999/xlink" x="0px" y="0px"
	 viewBox="0 0 497 362" style="enable-background:new 0 0 497 362;" xml:space="preserve">
<style type="text/css">
	.st0{opacity:0.1;fill:#323232;}
	.st1{fill:url(#SVGID_1_);}
	.st2{fill:#404A62;}
	.st3{fill:url(#SVGID_2_);}
	.st4{fill:url(#SVGID_3_);}
	.st5{fill:url(#SVGID_4_);}
	.st6{fill:url(#SVGID_5_);}
	.st7{fill:url(#SVGID_6_);}
	.st8{fill:url(#SVGID_7_);}
	.st9{fill:url(#SVGID_8_);}
	.st10{fill:url(#SVGID_9_);}
	.st11{fill:url(#SVGID_10_);}
</style>
<rect x="-1.4" y="-0.9" class="st0" width="498" height="363"/>
<g>
	<linearGradient id="SVGID_1_" gradientUnits="userSpaceOnUse" x1="26.1081" y1="178.7867" x2="46.5724" y2="178.7867">
		<stop  offset="0" style="stop-color:#F95364"/>
		<stop  offset="1" style="stop-color:#F77784"/>
	</linearGradient>
	<rect x="26.1" y="38.9" class="st1" width="20.5" height="279.8"/>
	<rect x="49.8" y="127.1" class="st2" width="8.1" height="103.4"/>
	<g>
		<g>
			<g>
				<linearGradient id="SVGID_2_" gradientUnits="userSpaceOnUse" x1="61.5104" y1="104.7681" x2="119.4916" y2="104.7681">
					<stop  offset="0" style="stop-color:#F95364"/>
					<stop  offset="1" style="stop-color:#F77784"/>
				</linearGradient>
				<path class="st3" d="M119.5,104.8c0,36.4-26,65.9-58,65.9V38.9C93.5,38.9,119.5,68.4,119.5,104.8z"/>
				<linearGradient id="SVGID_3_" gradientUnits="userSpaceOnUse" x1="61.9035" y1="106.9771" x2="183.0263" y2="106.9771">
					<stop  offset="0" style="stop-color:#F95364"/>
					<stop  offset="1" style="stop-color:#F77784"/>
				</linearGradient>
				<path class="st4" d="M70.2,35.2c-2.8,0-5.5,0.1-8.3,0.2c50.5,2.7,90.3,33.7,90.3,71.6s-39.8,68.9-90.3,71.6
					c2.7,0.1,5.5,0.2,8.3,0.2c62.3,0,112.9-32.2,112.9-71.8S132.5,35.2,70.2,35.2z"/>
			</g>
		</g>
		<path class="st2" d="M61.5,172.7v3.4c57.1,2.1,83.1-49,83.1-49s0,0-25.1,0C108.9,170.1,61.5,172.7,61.5,172.7L61.5,172.7z"/>
	</g>
	<g>
		<g>
			<g>
				<linearGradient id="SVGID_4_" gradientUnits="userSpaceOnUse" x1="61.707" y1="252.8053" x2="119.6882" y2="252.8053">
					<stop  offset="0" style="stop-color:#F95364"/>
					<stop  offset="1" style="stop-color:#F77784"/>
				</linearGradient>
				<path class="st5" d="M119.7,252.8c0-36.4-26-65.9-58-65.9v131.7C93.7,318.7,119.7,289.2,119.7,252.8z"/>
				<linearGradient id="SVGID_5_" gradientUnits="userSpaceOnUse" x1="62.1001" y1="250.5964" x2="183.2229" y2="250.5964">
					<stop  offset="0" style="stop-color:#F95364"/>
					<stop  offset="1" style="stop-color:#F77784"/>
				</linearGradient>
				<path class="st6" d="M70.4,322.4c-2.8,0-5.5-0.1-8.3-0.2c50.5-2.7,90.3-33.7,90.3-71.6s-39.8-68.9-90.3-71.6
					c2.7-0.1,5.5-0.2,8.3-0.2c62.3,0,112.9,32.2,112.9,71.8S132.7,322.4,70.4,322.4z"/>
			</g>
		</g>
		<path class="st2" d="M61.7,184.9v-3.4c57.1-2.1,83.1,49,83.1,49s0,0-25.1,0C109.1,187.5,61.7,184.9,61.7,184.9L61.7,184.9z"/>
	</g>
</g>
<g>
	<path class="st2" d="M173.5,146.5h10.1V211h-10.1V146.5z"/>
	<path class="st2" d="M193.3,207.8c-2.5-2.8-3.8-6.8-3.8-12v-3.7h9.6v4.4c0,4.2,1.8,6.3,5.3,6.3c1.7,0,3-0.5,3.9-1.5
		c0.9-1,1.3-2.7,1.3-4.9c0-2.7-0.6-5.1-1.8-7.1c-1.2-2.1-3.5-4.5-6.8-7.4c-4.2-3.7-7.1-7-8.8-10c-1.7-3-2.5-6.3-2.5-10.1
		c0-5.1,1.3-9,3.9-11.8c2.6-2.8,6.3-4.2,11.2-4.2c4.9,0,8.5,1.4,11,4.2c2.5,2.8,3.7,6.8,3.7,12v2.7H210v-3.3c0-2.2-0.4-3.8-1.3-4.8
		c-0.9-1-2.1-1.5-3.8-1.5c-3.4,0-5.1,2.1-5.1,6.2c0,2.3,0.6,4.5,1.9,6.5c1.3,2,3.5,4.5,6.9,7.4c4.2,3.7,7.2,7,8.8,10
		c1.6,3,2.4,6.5,2.4,10.6c0,5.3-1.3,9.3-3.9,12.2c-2.6,2.8-6.4,4.2-11.4,4.2C199.5,212,195.8,210.6,193.3,207.8z"/>
	<path class="st2" d="M233.1,146.5h13.7l10.5,64.5h-10.1l-1.8-12.8v0.2h-11.5L232,211h-9.4L233.1,146.5z M244.1,189.7l-4.5-31.9
		h-0.2l-4.4,31.9H244.1z"/>
	<path class="st2" d="M270.5,146.5h13.7l10.5,64.5h-10.1l-1.8-12.8v0.2h-11.5l-1.8,12.6H260L270.5,146.5z M281.6,189.7l-4.5-31.9
		h-0.2l-4.4,31.9H281.6z"/>
	<path class="st2" d="M299.6,146.5h12.7l9.9,38.6h0.2v-38.6h9V211H321l-12.2-47.1h-0.2V211h-9V146.5z"/>
</g>
<g>
	<linearGradient id="SVGID_6_" gradientUnits="userSpaceOnUse" x1="179.7382" y1="273.406" x2="233.6381" y2="273.406">
		<stop  offset="0" style="stop-color:#F95364"/>
		<stop  offset="1" style="stop-color:#F77784"/>
	</linearGradient>
	<path class="st7" d="M233.6,322.4h-15.5l-2.7-17.8h-18.9l-2.7,17.8h-14.1l15.7-98H218L233.6,322.4z M198.5,291.3h14.8l-7.4-49.6
		L198.5,291.3z"/>
	<linearGradient id="SVGID_7_" gradientUnits="userSpaceOnUse" x1="238.3978" y1="273.406" x2="283.4774" y2="273.406">
		<stop  offset="0" style="stop-color:#F95364"/>
		<stop  offset="1" style="stop-color:#F77784"/>
	</linearGradient>
	<path class="st8" d="M283.5,224.4v13.7l-29.3,70.3h29.3v14h-45.1v-13.7l29.3-70.3h-27.9v-14H283.5z"/>
	<linearGradient id="SVGID_8_" gradientUnits="userSpaceOnUse" x1="288.517" y1="273.406" x2="342.4169" y2="273.406">
		<stop  offset="0" style="stop-color:#F95364"/>
		<stop  offset="1" style="stop-color:#F77784"/>
	</linearGradient>
	<path class="st9" d="M342.4,322.4h-15.5l-2.7-17.8h-18.9l-2.7,17.8h-14.1l15.7-98h22.5L342.4,322.4z M307.3,291.3h14.8l-7.4-49.6
		L307.3,291.3z"/>
	<linearGradient id="SVGID_9_" gradientUnits="userSpaceOnUse" x1="345.4969" y1="273.406" x2="399.3969" y2="273.406">
		<stop  offset="0" style="stop-color:#F95364"/>
		<stop  offset="1" style="stop-color:#F77784"/>
	</linearGradient>
	<path class="st10" d="M399.4,322.4h-15.5l-2.7-17.8h-18.9l-2.7,17.8h-14.1l15.7-98h22.5L399.4,322.4z M364.3,291.3h14.8l-7.4-49.6
		L364.3,291.3z"/>
	<linearGradient id="SVGID_10_" gradientUnits="userSpaceOnUse" x1="406.5355" y1="273.406" x2="454.4164" y2="273.406">
		<stop  offset="0" style="stop-color:#F95364"/>
		<stop  offset="1" style="stop-color:#F77784"/>
	</linearGradient>
	<path class="st11" d="M438.7,322.4c-0.2-0.7-0.4-1.3-0.6-1.8c-0.2-0.6-0.4-1.3-0.5-2.1s-0.2-1.9-0.3-3.2c0-1.3-0.1-2.9-0.1-4.9V295
		c0-4.6-0.8-7.8-2.4-9.7c-1.6-1.9-4.2-2.8-7.7-2.8h-5.3v39.9h-15.4v-98h23.2c8,0,13.8,1.9,17.4,5.6c3.6,3.7,5.4,9.4,5.4,16.9v7.7
		c0,10.1-3.4,16.7-10.1,19.9c3.9,1.6,6.6,4.2,8,7.8c1.4,3.6,2.2,8,2.2,13.1v15.1c0,2.4,0.1,4.5,0.3,6.4c0.2,1.8,0.7,3.7,1.4,5.5
		H438.7z M421.9,238.4v30.1h6c2.9,0,5.2-0.7,6.8-2.2c1.6-1.5,2.5-4.2,2.5-8.1v-9.7c0-3.5-0.6-6.1-1.9-7.7c-1.3-1.6-3.2-2.4-6-2.4
		H421.9z"/>
</g>
<g>
	<g>
		<path d="M259,178.5c1.9,0,1.9-3,0-3C257.1,175.5,257.1,178.5,259,178.5L259,178.5z"/>
	</g>
</g>
</svg>
